<?xml version="1.0" encoding="UTF-8" standalone="no"?>
<!DOCTYPE svg PUBLIC "-//W3C//DTD SVG 1.1//EN" "http://www.w3.org/Graphics/SVG/1.1/DTD/svg11.dtd">
<svg width="100%" height="100%" viewBox="0 0 1500 1920" version="1.1" xmlns="http://www.w3.org/2000/svg" xmlns:xlink="http://www.w3.org/1999/xlink" xml:space="preserve" xmlns:serif="http://www.serif.com/" style="fill-rule:evenodd;clip-rule:evenodd;stroke-linecap:round;stroke-linejoin:round;stroke-miterlimit:1.5;">
    <g id="logo" transform="matrix(1.45567,0,0,1.45653,1579.7,78.8904)">
        <rect x="-1085.2" y="-54.163" width="1030.45" height="1318.2" style="fill:none;"/>
        <clipPath id="_clip1">
            <rect x="-1085.2" y="-54.163" width="1030.45" height="1318.2"/>
        </clipPath>
        <g clip-path="url(#_clip1)">
            <g id="logo1" serif:id="logo" transform="matrix(2.27285,0,0,2.29113,-2296.05,-6963.87)">
                <g transform="matrix(4.92445e-17,-0.796681,0.606451,3.67861e-17,-3476.08,5102.6)">
                    <path d="M2280.02,6610.31C2467.27,6612.8 2619.29,6779.43 2619.29,6984.1C2619.29,7188.77 2467.27,7355.4 2280.02,7357.89L2236.39,7357.89C2049.14,7355.4 1897.11,7188.77 1897.11,6984.1C1897.11,6779.43 2049.14,6612.8 2236.39,6610.31L2280.02,6610.31Z" style="fill:white;"/>
                    <path d="M2280.02,6610.31C2467.27,6612.8 2619.29,6779.43 2619.29,6984.1C2619.29,7188.77 2467.27,7355.4 2280.02,7357.89L2236.39,7357.89C2049.14,7355.4 1897.11,7188.77 1897.11,6984.1C1897.11,6779.43 2049.14,6612.8 2236.39,6610.31L2280.02,6610.31ZM2280,6615C2465.14,6617.48 2615.75,6781.74 2615.75,6984.1C2615.75,7186.46 2465.14,7350.72 2280,7353.2C2280,7353.2 2236.4,7353.2 2236.4,7353.2C2051.27,7350.72 1900.66,7186.46 1900.66,6984.1C1900.66,6781.74 2051.27,6617.48 2236.4,6615L2280,6615Z" style="fill:rgb(101,158,188);"/>
                </g>
                <g id="human" transform="matrix(2.03738,0,0,1.46918,546.67,2969.14)">
                    <g id="torso_bottom" transform="matrix(-0.244049,0,0,0.33455,277.454,-229.812)">
                        <g transform="matrix(-1,0,0,1.10182,1419.28,-110.58)">
                            <path d="M601.9,1403.16C695.019,1440.12 709.64,1571.95 709.64,1571.95" style="fill:none;stroke:rgb(191,146,104);stroke-width:5.22px;"/>
                        </g>
                        <g transform="matrix(1,0,0,1.10182,-6.82121e-13,-110.58)">
                            <path d="M601.9,1403.16C695.019,1440.12 709.64,1571.95 709.64,1571.95" style="fill:none;stroke:rgb(191,146,104);stroke-width:5.22px;"/>
                        </g>
                        <g transform="matrix(-0.997828,0,0,1.10182,1417.19,-110.58)">
                            <path d="M558.91,1414.76C596.015,1478.63 637.381,1538.31 709.089,1571.95" style="fill:none;stroke:rgb(117,187,89);stroke-width:5.22px;"/>
                        </g>
                        <g transform="matrix(0.997828,0,0,1.10182,2.08976,-110.58)">
                            <path d="M558.91,1414.76C596.015,1478.63 637.381,1538.31 709.089,1571.95" style="fill:none;stroke:rgb(117,187,89);stroke-width:5.22px;"/>
                        </g>
                    </g>
                    <g id="torso_inner-01" transform="matrix(-0.244049,0,0,0.33455,277.454,-229.812)">
                        <g transform="matrix(2.62077,0,0,2.62633,-5195.56,-943.569)">
                            <path d="M2305.32,885.044C2317.16,836.789 2292.85,811.461 2252.99,784.641" style="fill:none;stroke:rgb(191,146,104);stroke-width:2.09px;"/>
                        </g>
                        <g transform="matrix(-1.52377,0,0,1.527,1242.34,613.988)">
                            <path d="M333.541,320.318C333.541,320.318 220.026,379.393 260.648,502.033" style="fill:none;stroke:rgb(191,146,104);stroke-width:3.6px;"/>
                        </g>
                        <g transform="matrix(-0.997828,0,0,1.10182,1417.19,-110.58)">
                            <path d="M505.415,1298.45C511.258,1319.29 519.05,1339.68 527.441,1357.48" style="fill:none;stroke:rgb(117,187,89);stroke-width:5.22px;"/>
                        </g>
                    </g>
                    <g id="torso_inner-02" transform="matrix(-0.244049,0,0,0.33455,277.454,-229.812)">
                        <g transform="matrix(-2.62077,0,0,2.62633,6613.61,-943.569)">
                            <path d="M2305.32,885.044C2317.16,836.789 2292.85,811.461 2252.99,784.641" style="fill:none;stroke:rgb(191,146,104);stroke-width:2.09px;"/>
                        </g>
                        <g transform="matrix(1.52377,0,0,1.527,175.74,613.988)">
                            <path d="M333.541,320.318C333.541,320.318 220.026,379.393 260.648,502.033" style="fill:none;stroke:rgb(191,146,104);stroke-width:3.6px;"/>
                        </g>
                        <g transform="matrix(2.62077,0,0,2.62633,-5195.56,-943.569)">
                            <path d="M2175.21,861.907C2177.44,870.649 2180.4,879.2 2183.6,886.669" style="fill:none;stroke:rgb(117,187,89);stroke-width:2.09px;"/>
                        </g>
                    </g>
                    <g id="arm-01" transform="matrix(0.25023,0,0,0.400666,-73.2541,-258.845)">
                        <g transform="matrix(2.55603,0,0,2.19294,-5047.51,-717.377)">
                            <path d="M2252.54,855.312C2252.54,855.312 2235.33,912.219 2185.08,912.338C2160.33,912.397 2137.4,895.71 2137.72,867.507C2138.18,826.295 2173.97,799.218 2193.46,787.511" style="fill:none;stroke:rgb(109,159,194);stroke-width:2.09px;"/>
                        </g>
                        <g transform="matrix(2.64416,0,0,2.19294,-5248.56,-678.305)">
                            <path d="M2253.47,837.495C2236.95,854.235 2179.47,894.028 2162.65,849.69C2147.28,809.169 2178.03,781.763 2196.24,769.694" style="fill:none;stroke:rgb(109,159,194);stroke-width:2.06px;"/>
                        </g>
                        <g transform="matrix(2.55603,0,0,2.19294,-5035.46,-707.507)">
                            <path d="M2207.25,902.124C2222.83,907.594 2247.96,895.806 2247.82,850.811" style="fill:none;stroke:rgb(109,159,194);stroke-width:2.09px;"/>
                        </g>
                    </g>
                    <g id="arm-02" transform="matrix(-0.25023,0,0,0.400666,282.091,-258.845)">
                        <g transform="matrix(2.55603,0,0,2.19294,-5047.51,-717.377)">
                            <path d="M2252.54,855.312C2252.54,855.312 2235.33,912.219 2185.08,912.338C2160.33,912.397 2137.4,895.71 2137.72,867.507C2138.18,826.295 2173.97,799.218 2193.46,787.511" style="fill:none;stroke:rgb(109,159,194);stroke-width:2.09px;"/>
                        </g>
                        <g transform="matrix(2.55603,0,0,2.19294,-5035.46,-707.507)">
                            <path d="M2207.25,902.124C2222.83,907.594 2247.96,895.806 2247.82,850.811" style="fill:none;stroke:rgb(109,159,194);stroke-width:2.09px;"/>
                        </g>
                        <g transform="matrix(2.64416,0,0,2.19294,-5248.56,-678.305)">
                            <path d="M2253.47,837.495C2236.95,854.235 2179.47,894.028 2162.65,849.69C2147.28,809.169 2178.03,781.763 2196.24,769.694" style="fill:none;stroke:rgb(109,159,194);stroke-width:2.06px;"/>
                        </g>
                    </g>
                    <g id="head" transform="matrix(1,0,0,1,-1.13687e-13,11.8387)">
                        <g transform="matrix(-0.65315,0,0,1.06916,1576.06,-708.137)">
                            <path d="M2253.15,776.322C2253.15,776.322 2258.47,773.083 2264.83,767.79C2279.03,755.955 2299.53,733.26 2283.51,710.32C2273.34,695.775 2253.38,695.822 2253.38,695.822" style="fill:none;stroke:rgb(109,159,194);stroke-width:1.86px;"/>
                        </g>
                        <g transform="matrix(0.65315,0,0,1.06916,-1367.23,-708.137)">
                            <path d="M2253.15,776.322C2253.15,776.322 2258.47,773.083 2264.83,767.79C2279.03,755.955 2299.53,733.26 2283.51,710.32C2273.34,695.775 2253.38,695.822 2253.38,695.822" style="fill:none;stroke:rgb(109,159,194);stroke-width:1.86px;"/>
                        </g>
                        <g transform="matrix(-0.639596,0,0,0.878638,1544.98,-558.113)">
                            <path d="M2252.3,762.285C2270.05,752.622 2282.01,737.862 2288.34,723.911" style="fill:none;stroke:rgb(109,159,194);stroke-width:2.09px;"/>
                        </g>
                        <g transform="matrix(0.639596,0,0,0.878638,-1336.14,-558.113)">
                            <path d="M2252.3,762.285C2270.05,752.622 2282.01,737.862 2288.34,723.911" style="fill:none;stroke:rgb(109,159,194);stroke-width:2.09px;"/>
                        </g>
                        <g transform="matrix(0.371873,0,0,0.510857,-25.7371,35.0312)">
                            <path d="M349.973,170C349.973,170 343.394,173.788 333.53,180.787" style="fill:none;stroke:rgb(109,159,194);stroke-width:3.6px;"/>
                        </g>
                        <g transform="matrix(-0.371873,0,0,0.510857,234.553,35.0312)">
                            <path d="M349.973,170C349.973,170 343.385,173.793 333.508,180.802" style="fill:none;stroke:rgb(109,159,194);stroke-width:3.6px;"/>
                        </g>
                        <g transform="matrix(0.639596,0,0,0.878638,-1336.29,-558.113)">
                            <path d="M2212.97,777.971C2229.19,771.429 2252.54,762.285 2252.54,762.285" style="fill:none;stroke:rgb(109,159,194);stroke-width:2.09px;"/>
                        </g>
                        <g transform="matrix(-0.639596,0,0,0.878638,1545.13,-558.113)">
                            <path d="M2212.97,777.971C2229.19,771.429 2252.54,762.285 2252.54,762.285" style="fill:none;stroke:rgb(109,159,194);stroke-width:2.09px;"/>
                        </g>
                    </g>
                    <g id="torso_top" transform="matrix(-0.244049,0,0,0.33455,277.454,-229.812)">
                        <g transform="matrix(-1,0,0,1.10182,1419.28,-110.58)">
                            <path d="M710.258,1170.39C710.258,1170.39 618.035,1082.77 546.82,1124.13" style="fill:none;stroke:rgb(117,187,89);stroke-width:5.22px;"/>
                        </g>
                        <g transform="matrix(1,0,0,1.10182,-1.23519,-110.58)">
                            <path d="M710.258,1170.39C710.258,1170.39 618.035,1082.77 546.82,1124.13" style="fill:none;stroke:rgb(117,187,89);stroke-width:5.22px;"/>
                        </g>
                        <g transform="matrix(2.62077,0,0,2.62633,-5195.56,-943.569)">
                            <path d="M2252.99,784.641C2252.99,784.641 2234.98,771.144 2216.03,776.319C2199.14,780.931 2181.32,791.025 2174.32,812.708C2172.34,818.835 2171.23,825.887 2171.25,834.003C2171.27,842.772 2172.8,852.451 2175.21,861.907" style="fill:none;stroke:rgb(117,187,89);stroke-width:2.09px;"/>
                        </g>
                        <g transform="matrix(-0.997828,0,0,1.10182,1417.19,-110.58)">
                            <path d="M709.71,1114.28C709.71,1114.28 662.394,1082.11 612.619,1094.44C568.256,1105.44 521.445,1129.5 503.072,1181.18C497.88,1195.79 494.959,1212.6 495.005,1231.94C495.054,1252.84 499.094,1275.91 505.415,1298.45" style="fill:none;stroke:rgb(117,187,89);stroke-width:5.22px;"/>
                        </g>
                    </g>
                </g>
                <g id="text" transform="matrix(0.267488,0,0,0.264979,418.971,3358.78)">
                    <g transform="matrix(196.384,0,0,196.384,691.352,467.61)">
                        <path d="M0.323,0.01C0.282,0.01 0.246,0.002 0.214,-0.013C0.182,-0.028 0.158,-0.049 0.143,-0.078C0.14,-0.055 0.135,-0.029 0.126,-0L0.082,-0L0.082,-0.67C0.053,-0.675 0.029,-0.681 0.012,-0.687L0.012,-0.693L0.151,-0.708L0.151,-0.431C0.18,-0.461 0.21,-0.481 0.241,-0.492C0.272,-0.502 0.303,-0.507 0.334,-0.507C0.399,-0.507 0.451,-0.486 0.491,-0.444C0.531,-0.401 0.551,-0.34 0.551,-0.261C0.551,-0.169 0.531,-0.101 0.491,-0.057C0.45,-0.012 0.394,0.01 0.323,0.01ZM0.313,-0.021C0.372,-0.021 0.415,-0.042 0.442,-0.085C0.469,-0.128 0.482,-0.185 0.482,-0.256C0.482,-0.329 0.468,-0.384 0.441,-0.421C0.414,-0.458 0.37,-0.476 0.309,-0.476C0.278,-0.476 0.248,-0.468 0.221,-0.452C0.194,-0.436 0.17,-0.416 0.151,-0.391L0.151,-0.168C0.151,-0.142 0.157,-0.118 0.17,-0.095C0.183,-0.072 0.201,-0.054 0.226,-0.041C0.251,-0.028 0.28,-0.021 0.313,-0.021Z" style="fill:rgb(109,159,194);fill-rule:nonzero;"/>
                    </g>
                    <g transform="matrix(196.384,0,0,196.384,805.451,467.61)">
                        <path d="M0.282,0.01C0.203,0.01 0.14,-0.013 0.095,-0.059C0.05,-0.104 0.027,-0.167 0.027,-0.248C0.027,-0.329 0.05,-0.392 0.095,-0.438C0.14,-0.484 0.203,-0.507 0.282,-0.507C0.361,-0.507 0.424,-0.484 0.469,-0.438C0.514,-0.392 0.536,-0.329 0.536,-0.248C0.536,-0.167 0.514,-0.104 0.469,-0.059C0.424,-0.013 0.361,0.01 0.282,0.01ZM0.282,-0.021C0.339,-0.021 0.384,-0.041 0.417,-0.082C0.45,-0.122 0.467,-0.177 0.467,-0.248C0.467,-0.319 0.45,-0.374 0.417,-0.415C0.384,-0.456 0.339,-0.476 0.282,-0.476C0.225,-0.476 0.179,-0.456 0.146,-0.415C0.113,-0.374 0.096,-0.319 0.096,-0.248C0.096,-0.177 0.113,-0.121 0.146,-0.081C0.179,-0.041 0.225,-0.021 0.282,-0.021Z" style="fill:rgb(109,159,194);fill-rule:nonzero;"/>
                    </g>
                    <g transform="matrix(196.384,0,0,196.384,916.211,467.61)">
                        <path d="M0.25,0.01C0.181,0.01 0.127,-0.011 0.088,-0.054C0.049,-0.096 0.03,-0.161 0.03,-0.25C0.03,-0.331 0.051,-0.394 0.093,-0.439C0.134,-0.484 0.19,-0.507 0.259,-0.507C0.29,-0.507 0.32,-0.502 0.348,-0.492C0.377,-0.482 0.404,-0.462 0.43,-0.433L0.43,-0.67C0.401,-0.675 0.377,-0.681 0.36,-0.687L0.36,-0.693L0.499,-0.708L0.499,-0.036C0.526,-0.031 0.55,-0.026 0.569,-0.02L0.569,-0.014L0.447,0.003C0.443,-0.016 0.44,-0.045 0.437,-0.084C0.42,-0.053 0.395,-0.029 0.362,-0.014C0.329,0.002 0.291,0.01 0.25,0.01ZM0.268,-0.021C0.301,-0.021 0.329,-0.028 0.354,-0.041C0.378,-0.054 0.397,-0.073 0.41,-0.096C0.423,-0.118 0.43,-0.144 0.43,-0.171L0.43,-0.392C0.408,-0.418 0.385,-0.439 0.361,-0.454C0.336,-0.469 0.309,-0.476 0.278,-0.476C0.218,-0.476 0.173,-0.455 0.143,-0.413C0.114,-0.371 0.099,-0.316 0.099,-0.249C0.099,-0.178 0.113,-0.123 0.14,-0.082C0.167,-0.041 0.209,-0.021 0.268,-0.021Z" style="fill:rgb(109,159,194);fill-rule:nonzero;"/>
                    </g>
                    <g transform="matrix(196.384,0,0,196.384,1028.74,467.61)">
                        <path d="M0.539,-0.027C0.57,-0.022 0.597,-0.016 0.62,-0.009L0.62,-0L0.391,-0L0.391,-0.009C0.416,-0.017 0.443,-0.023 0.47,-0.027L0.47,-0.358C0.47,-0.399 0.46,-0.429 0.439,-0.448C0.418,-0.467 0.391,-0.476 0.358,-0.476C0.329,-0.476 0.298,-0.469 0.266,-0.454C0.234,-0.439 0.206,-0.419 0.183,-0.394L0.183,-0.027C0.214,-0.022 0.24,-0.016 0.261,-0.009L0.261,-0L0.033,-0L0.033,-0.009C0.06,-0.018 0.087,-0.024 0.114,-0.027L0.114,-0.67C0.085,-0.675 0.061,-0.681 0.044,-0.687L0.044,-0.693L0.183,-0.708L0.183,-0.428C0.207,-0.451 0.236,-0.469 0.271,-0.485C0.305,-0.5 0.342,-0.507 0.381,-0.507C0.429,-0.507 0.467,-0.494 0.496,-0.469C0.525,-0.444 0.539,-0.41 0.539,-0.367L0.539,-0.027Z" style="fill:rgb(109,159,194);fill-rule:nonzero;"/>
                    </g>
                    <g transform="matrix(196.384,0,0,196.384,1154.42,467.61)">
                        <path d="M0.136,-0.554C0.121,-0.554 0.11,-0.558 0.101,-0.567C0.092,-0.576 0.087,-0.587 0.087,-0.601C0.087,-0.616 0.092,-0.627 0.101,-0.636C0.11,-0.645 0.121,-0.649 0.136,-0.649C0.151,-0.649 0.163,-0.645 0.172,-0.636C0.181,-0.627 0.185,-0.616 0.185,-0.601C0.185,-0.587 0.181,-0.576 0.172,-0.567C0.163,-0.558 0.151,-0.554 0.136,-0.554ZM0.027,-0.009C0.044,-0.014 0.071,-0.02 0.108,-0.027L0.108,-0.466C0.079,-0.471 0.055,-0.477 0.038,-0.483L0.038,-0.489L0.177,-0.504L0.177,-0.027C0.207,-0.023 0.234,-0.017 0.258,-0.009L0.258,-0L0.027,-0L0.027,-0.009Z" style="fill:rgb(109,159,194);fill-rule:nonzero;"/>
                    </g>
                    <g transform="matrix(196.384,0,0,196.384,1261.85,467.61)">
                        <path d="M0.323,0.01C0.282,0.01 0.246,0.002 0.214,-0.013C0.182,-0.028 0.158,-0.049 0.143,-0.078C0.14,-0.055 0.135,-0.029 0.126,-0L0.082,-0L0.082,-0.67C0.053,-0.675 0.029,-0.681 0.012,-0.687L0.012,-0.693L0.151,-0.708L0.151,-0.431C0.18,-0.461 0.21,-0.481 0.241,-0.492C0.272,-0.502 0.303,-0.507 0.334,-0.507C0.399,-0.507 0.451,-0.486 0.491,-0.444C0.531,-0.401 0.551,-0.34 0.551,-0.261C0.551,-0.169 0.531,-0.101 0.491,-0.057C0.45,-0.012 0.394,0.01 0.323,0.01ZM0.313,-0.021C0.372,-0.021 0.415,-0.042 0.442,-0.085C0.469,-0.128 0.482,-0.185 0.482,-0.256C0.482,-0.329 0.468,-0.384 0.441,-0.421C0.414,-0.458 0.37,-0.476 0.309,-0.476C0.278,-0.476 0.248,-0.468 0.221,-0.452C0.194,-0.436 0.17,-0.416 0.151,-0.391L0.151,-0.168C0.151,-0.142 0.157,-0.118 0.17,-0.095C0.183,-0.072 0.201,-0.054 0.226,-0.041C0.251,-0.028 0.28,-0.021 0.313,-0.021Z" style="fill:rgb(109,159,194);fill-rule:nonzero;"/>
                    </g>
                    <g transform="matrix(196.384,0,0,196.384,1375.95,467.61)">
                        <path d="M0.282,0.01C0.203,0.01 0.14,-0.013 0.095,-0.059C0.05,-0.104 0.027,-0.167 0.027,-0.248C0.027,-0.329 0.05,-0.392 0.095,-0.438C0.14,-0.484 0.203,-0.507 0.282,-0.507C0.361,-0.507 0.424,-0.484 0.469,-0.438C0.514,-0.392 0.536,-0.329 0.536,-0.248C0.536,-0.167 0.514,-0.104 0.469,-0.059C0.424,-0.013 0.361,0.01 0.282,0.01ZM0.282,-0.021C0.339,-0.021 0.384,-0.041 0.417,-0.082C0.45,-0.122 0.467,-0.177 0.467,-0.248C0.467,-0.319 0.45,-0.374 0.417,-0.415C0.384,-0.456 0.339,-0.476 0.282,-0.476C0.225,-0.476 0.179,-0.456 0.146,-0.415C0.113,-0.374 0.096,-0.319 0.096,-0.248C0.096,-0.177 0.113,-0.121 0.146,-0.081C0.179,-0.041 0.225,-0.021 0.282,-0.021Z" style="fill:rgb(109,159,194);fill-rule:nonzero;"/>
                    </g>
                    <g transform="matrix(196.384,0,0,196.384,1486.71,467.61)">
                        <path d="M0.25,0.01C0.181,0.01 0.127,-0.011 0.088,-0.054C0.049,-0.096 0.03,-0.161 0.03,-0.25C0.03,-0.331 0.051,-0.394 0.093,-0.439C0.134,-0.484 0.19,-0.507 0.259,-0.507C0.29,-0.507 0.32,-0.502 0.348,-0.492C0.377,-0.482 0.404,-0.462 0.43,-0.433L0.43,-0.67C0.401,-0.675 0.377,-0.681 0.36,-0.687L0.36,-0.693L0.499,-0.708L0.499,-0.036C0.526,-0.031 0.55,-0.026 0.569,-0.02L0.569,-0.014L0.447,0.003C0.443,-0.016 0.44,-0.045 0.437,-0.084C0.42,-0.053 0.395,-0.029 0.362,-0.014C0.329,0.002 0.291,0.01 0.25,0.01ZM0.268,-0.021C0.301,-0.021 0.329,-0.028 0.354,-0.041C0.378,-0.054 0.397,-0.073 0.41,-0.096C0.423,-0.118 0.43,-0.144 0.43,-0.171L0.43,-0.392C0.408,-0.418 0.385,-0.439 0.361,-0.454C0.336,-0.469 0.309,-0.476 0.278,-0.476C0.218,-0.476 0.173,-0.455 0.143,-0.413C0.114,-0.371 0.099,-0.316 0.099,-0.249C0.099,-0.178 0.113,-0.123 0.14,-0.082C0.167,-0.041 0.209,-0.021 0.268,-0.021Z" style="fill:rgb(109,159,194);fill-rule:nonzero;"/>
                    </g>
                    <g transform="matrix(196.384,0,0,196.384,1599.23,467.61)">
                        <path d="M0.136,-0.554C0.121,-0.554 0.11,-0.558 0.101,-0.567C0.092,-0.576 0.087,-0.587 0.087,-0.601C0.087,-0.616 0.092,-0.627 0.101,-0.636C0.11,-0.645 0.121,-0.649 0.136,-0.649C0.151,-0.649 0.163,-0.645 0.172,-0.636C0.181,-0.627 0.185,-0.616 0.185,-0.601C0.185,-0.587 0.181,-0.576 0.172,-0.567C0.163,-0.558 0.151,-0.554 0.136,-0.554ZM0.027,-0.009C0.044,-0.014 0.071,-0.02 0.108,-0.027L0.108,-0.466C0.079,-0.471 0.055,-0.477 0.038,-0.483L0.038,-0.489L0.177,-0.504L0.177,-0.027C0.207,-0.023 0.234,-0.017 0.258,-0.009L0.258,-0L0.027,-0L0.027,-0.009Z" style="fill:rgb(109,159,194);fill-rule:nonzero;"/>
                    </g>
                    <g transform="matrix(196.384,0,0,196.384,1655.4,467.61)">
                        <path d="M0.486,-0.251L0.098,-0.251C0.098,-0.184 0.116,-0.128 0.151,-0.085C0.186,-0.042 0.236,-0.02 0.302,-0.02C0.329,-0.02 0.356,-0.024 0.384,-0.033C0.412,-0.042 0.436,-0.053 0.456,-0.067L0.463,-0.044C0.444,-0.029 0.419,-0.016 0.388,-0.006C0.357,0.005 0.322,0.01 0.284,0.01C0.233,0.01 0.189,-0.001 0.15,-0.023C0.111,-0.044 0.081,-0.075 0.06,-0.114C0.039,-0.153 0.028,-0.197 0.028,-0.248C0.028,-0.33 0.05,-0.394 0.093,-0.439C0.136,-0.484 0.196,-0.507 0.272,-0.507C0.319,-0.507 0.359,-0.496 0.392,-0.475C0.424,-0.454 0.448,-0.425 0.463,-0.39C0.478,-0.355 0.486,-0.315 0.486,-0.272L0.486,-0.251ZM0.423,-0.282C0.423,-0.333 0.411,-0.378 0.387,-0.417C0.363,-0.456 0.325,-0.476 0.274,-0.476C0.22,-0.476 0.179,-0.458 0.15,-0.422C0.121,-0.385 0.104,-0.339 0.099,-0.282L0.423,-0.282Z" style="fill:rgb(109,159,194);fill-rule:nonzero;"/>
                    </g>
                    <g transform="matrix(196.384,0,0,196.384,1761.05,467.61)">
                        <path d="M0.228,0.01C0.147,0.01 0.085,-0.009 0.042,-0.048L0.049,-0.174L0.066,-0.174C0.069,-0.165 0.073,-0.148 0.076,-0.123C0.079,-0.098 0.08,-0.076 0.081,-0.059C0.11,-0.034 0.151,-0.021 0.204,-0.021C0.248,-0.021 0.282,-0.031 0.306,-0.05C0.329,-0.069 0.341,-0.094 0.341,-0.126C0.341,-0.145 0.335,-0.16 0.323,-0.173C0.311,-0.186 0.296,-0.196 0.279,-0.205C0.262,-0.214 0.238,-0.224 0.207,-0.235C0.171,-0.248 0.142,-0.261 0.12,-0.272C0.098,-0.283 0.079,-0.299 0.064,-0.318C0.048,-0.337 0.04,-0.361 0.04,-0.39C0.04,-0.429 0.057,-0.459 0.091,-0.478C0.124,-0.497 0.167,-0.507 0.218,-0.507C0.289,-0.507 0.345,-0.49 0.384,-0.457L0.375,-0.356L0.357,-0.356C0.353,-0.365 0.35,-0.379 0.347,-0.397C0.345,-0.414 0.344,-0.431 0.344,-0.446C0.328,-0.457 0.311,-0.464 0.294,-0.469C0.277,-0.474 0.256,-0.476 0.232,-0.476C0.194,-0.476 0.164,-0.47 0.142,-0.457C0.12,-0.444 0.109,-0.424 0.109,-0.397C0.109,-0.378 0.115,-0.361 0.127,-0.347C0.139,-0.334 0.154,-0.323 0.172,-0.314C0.189,-0.305 0.214,-0.295 0.246,-0.282C0.283,-0.268 0.312,-0.255 0.333,-0.244C0.354,-0.233 0.372,-0.218 0.387,-0.199C0.402,-0.18 0.41,-0.157 0.41,-0.13C0.41,-0.085 0.393,-0.051 0.359,-0.027C0.325,-0.002 0.281,0.01 0.228,0.01Z" style="fill:rgb(109,159,194);fill-rule:nonzero;"/>
                    </g>
                    <g transform="matrix(196.384,0,0,196.384,883.022,663.994)">
                        <path d="M0.077,-0.473C0.045,-0.478 0.022,-0.484 0.009,-0.489L0.009,-0.498L0.222,-0.498L0.222,-0.486C0.199,-0.479 0.173,-0.474 0.146,-0.471L0.247,-0.078L0.375,-0.448L0.42,-0.448L0.55,-0.066L0.654,-0.471C0.623,-0.476 0.598,-0.482 0.578,-0.489L0.578,-0.498L0.766,-0.498L0.766,-0.489C0.749,-0.483 0.727,-0.478 0.698,-0.473L0.57,-0L0.519,-0L0.388,-0.382L0.255,-0L0.205,-0L0.077,-0.473Z" style="fill:rgb(109,159,194);fill-rule:nonzero;"/>
                    </g>
                    <g transform="matrix(196.384,0,0,196.384,1031.29,663.994)">
                        <path d="M0.486,-0.251L0.098,-0.251C0.098,-0.184 0.116,-0.128 0.151,-0.085C0.186,-0.042 0.236,-0.02 0.302,-0.02C0.329,-0.02 0.356,-0.024 0.384,-0.033C0.412,-0.042 0.436,-0.053 0.456,-0.067L0.463,-0.044C0.444,-0.029 0.419,-0.016 0.388,-0.006C0.357,0.005 0.322,0.01 0.284,0.01C0.233,0.01 0.189,-0.001 0.15,-0.023C0.111,-0.044 0.081,-0.075 0.06,-0.114C0.039,-0.153 0.028,-0.197 0.028,-0.248C0.028,-0.33 0.05,-0.394 0.093,-0.439C0.136,-0.484 0.196,-0.507 0.272,-0.507C0.319,-0.507 0.359,-0.496 0.392,-0.475C0.424,-0.454 0.448,-0.425 0.463,-0.39C0.478,-0.355 0.486,-0.315 0.486,-0.272L0.486,-0.251ZM0.423,-0.282C0.423,-0.333 0.411,-0.378 0.387,-0.417C0.363,-0.456 0.325,-0.476 0.274,-0.476C0.22,-0.476 0.179,-0.458 0.15,-0.422C0.121,-0.385 0.104,-0.339 0.099,-0.282L0.423,-0.282Z" style="fill:rgb(109,159,194);fill-rule:nonzero;"/>
                    </g>
                    <g transform="matrix(196.384,0,0,196.384,1133.02,663.994)">
                        <path d="M0.033,-0.009C0.054,-0.015 0.081,-0.021 0.114,-0.027L0.114,-0.67C0.085,-0.675 0.061,-0.681 0.044,-0.687L0.044,-0.693L0.183,-0.708L0.183,-0.027C0.216,-0.022 0.243,-0.016 0.264,-0.009L0.264,-0L0.033,-0L0.033,-0.009Z" style="fill:rgb(109,159,194);fill-rule:nonzero;"/>
                    </g>
                    <g transform="matrix(196.384,0,0,196.384,1191.54,663.994)">
                        <path d="M0.033,-0.009C0.054,-0.015 0.081,-0.021 0.114,-0.027L0.114,-0.67C0.085,-0.675 0.061,-0.681 0.044,-0.687L0.044,-0.693L0.183,-0.708L0.183,-0.027C0.216,-0.022 0.243,-0.016 0.264,-0.009L0.264,-0L0.033,-0L0.033,-0.009Z" style="fill:rgb(109,159,194);fill-rule:nonzero;"/>
                    </g>
                    <g transform="matrix(196.384,0,0,196.384,1250.06,663.994)">
                        <path d="M0.539,-0.027C0.572,-0.022 0.599,-0.016 0.62,-0.009L0.62,-0L0.392,-0L0.392,-0.009C0.414,-0.017 0.44,-0.023 0.47,-0.027L0.47,-0.358C0.47,-0.399 0.46,-0.429 0.439,-0.448C0.418,-0.467 0.391,-0.476 0.358,-0.476C0.329,-0.476 0.298,-0.469 0.266,-0.454C0.234,-0.439 0.206,-0.419 0.183,-0.394L0.183,-0.027C0.214,-0.022 0.241,-0.016 0.264,-0.009L0.264,-0L0.033,-0L0.033,-0.009C0.058,-0.017 0.085,-0.023 0.114,-0.027L0.114,-0.467C0.085,-0.472 0.061,-0.478 0.044,-0.484L0.044,-0.49L0.183,-0.505L0.183,-0.428C0.207,-0.451 0.236,-0.469 0.271,-0.485C0.305,-0.5 0.342,-0.507 0.381,-0.507C0.429,-0.507 0.467,-0.494 0.496,-0.469C0.525,-0.444 0.539,-0.41 0.539,-0.367L0.539,-0.027Z" style="fill:rgb(109,159,194);fill-rule:nonzero;"/>
                    </g>
                    <g transform="matrix(196.384,0,0,196.384,1375.75,663.994)">
                        <path d="M0.486,-0.251L0.098,-0.251C0.098,-0.184 0.116,-0.128 0.151,-0.085C0.186,-0.042 0.236,-0.02 0.302,-0.02C0.329,-0.02 0.356,-0.024 0.384,-0.033C0.412,-0.042 0.436,-0.053 0.456,-0.067L0.463,-0.044C0.444,-0.029 0.419,-0.016 0.388,-0.006C0.357,0.005 0.322,0.01 0.284,0.01C0.233,0.01 0.189,-0.001 0.15,-0.023C0.111,-0.044 0.081,-0.075 0.06,-0.114C0.039,-0.153 0.028,-0.197 0.028,-0.248C0.028,-0.33 0.05,-0.394 0.093,-0.439C0.136,-0.484 0.196,-0.507 0.272,-0.507C0.319,-0.507 0.359,-0.496 0.392,-0.475C0.424,-0.454 0.448,-0.425 0.463,-0.39C0.478,-0.355 0.486,-0.315 0.486,-0.272L0.486,-0.251ZM0.423,-0.282C0.423,-0.333 0.411,-0.378 0.387,-0.417C0.363,-0.456 0.325,-0.476 0.274,-0.476C0.22,-0.476 0.179,-0.458 0.15,-0.422C0.121,-0.385 0.104,-0.339 0.099,-0.282L0.423,-0.282Z" style="fill:rgb(109,159,194);fill-rule:nonzero;"/>
                    </g>
                    <g transform="matrix(196.384,0,0,196.384,1481.4,663.994)">
                        <path d="M0.228,0.01C0.147,0.01 0.085,-0.009 0.042,-0.048L0.049,-0.174L0.066,-0.174C0.069,-0.165 0.073,-0.148 0.076,-0.123C0.079,-0.098 0.08,-0.076 0.081,-0.059C0.11,-0.034 0.151,-0.021 0.204,-0.021C0.248,-0.021 0.282,-0.031 0.306,-0.05C0.329,-0.069 0.341,-0.094 0.341,-0.126C0.341,-0.145 0.335,-0.16 0.323,-0.173C0.311,-0.186 0.296,-0.196 0.279,-0.205C0.262,-0.214 0.238,-0.224 0.207,-0.235C0.171,-0.248 0.142,-0.261 0.12,-0.272C0.098,-0.283 0.079,-0.299 0.064,-0.318C0.048,-0.337 0.04,-0.361 0.04,-0.39C0.04,-0.429 0.057,-0.459 0.091,-0.478C0.124,-0.497 0.167,-0.507 0.218,-0.507C0.289,-0.507 0.345,-0.49 0.384,-0.457L0.375,-0.356L0.357,-0.356C0.353,-0.365 0.35,-0.379 0.347,-0.397C0.345,-0.414 0.344,-0.431 0.344,-0.446C0.328,-0.457 0.311,-0.464 0.294,-0.469C0.277,-0.474 0.256,-0.476 0.232,-0.476C0.194,-0.476 0.164,-0.47 0.142,-0.457C0.12,-0.444 0.109,-0.424 0.109,-0.397C0.109,-0.378 0.115,-0.361 0.127,-0.347C0.139,-0.334 0.154,-0.323 0.172,-0.314C0.189,-0.305 0.214,-0.295 0.246,-0.282C0.283,-0.268 0.312,-0.255 0.333,-0.244C0.354,-0.233 0.372,-0.218 0.387,-0.199C0.402,-0.18 0.41,-0.157 0.41,-0.13C0.41,-0.085 0.393,-0.051 0.359,-0.027C0.325,-0.002 0.281,0.01 0.228,0.01Z" style="fill:rgb(109,159,194);fill-rule:nonzero;"/>
                    </g>
                    <g transform="matrix(196.384,0,0,196.384,1569.38,663.994)">
                        <path d="M0.228,0.01C0.147,0.01 0.085,-0.009 0.042,-0.048L0.049,-0.174L0.066,-0.174C0.069,-0.165 0.073,-0.148 0.076,-0.123C0.079,-0.098 0.08,-0.076 0.081,-0.059C0.11,-0.034 0.151,-0.021 0.204,-0.021C0.248,-0.021 0.282,-0.031 0.306,-0.05C0.329,-0.069 0.341,-0.094 0.341,-0.126C0.341,-0.145 0.335,-0.16 0.323,-0.173C0.311,-0.186 0.296,-0.196 0.279,-0.205C0.262,-0.214 0.238,-0.224 0.207,-0.235C0.171,-0.248 0.142,-0.261 0.12,-0.272C0.098,-0.283 0.079,-0.299 0.064,-0.318C0.048,-0.337 0.04,-0.361 0.04,-0.39C0.04,-0.429 0.057,-0.459 0.091,-0.478C0.124,-0.497 0.167,-0.507 0.218,-0.507C0.289,-0.507 0.345,-0.49 0.384,-0.457L0.375,-0.356L0.357,-0.356C0.353,-0.365 0.35,-0.379 0.347,-0.397C0.345,-0.414 0.344,-0.431 0.344,-0.446C0.328,-0.457 0.311,-0.464 0.294,-0.469C0.277,-0.474 0.256,-0.476 0.232,-0.476C0.194,-0.476 0.164,-0.47 0.142,-0.457C0.12,-0.444 0.109,-0.424 0.109,-0.397C0.109,-0.378 0.115,-0.361 0.127,-0.347C0.139,-0.334 0.154,-0.323 0.172,-0.314C0.189,-0.305 0.214,-0.295 0.246,-0.282C0.283,-0.268 0.312,-0.255 0.333,-0.244C0.354,-0.233 0.372,-0.218 0.387,-0.199C0.402,-0.18 0.41,-0.157 0.41,-0.13C0.41,-0.085 0.393,-0.051 0.359,-0.027C0.325,-0.002 0.281,0.01 0.228,0.01Z" style="fill:rgb(109,159,194);fill-rule:nonzero;"/>
                    </g>
                </g>
                <g transform="matrix(4.92445e-17,-0.796681,0.606451,3.67861e-17,-3476.08,5102.6)">
                    <path d="M2280.02,6610.31C2467.27,6612.8 2619.29,6779.43 2619.29,6984.1C2619.29,7188.77 2467.27,7355.4 2280.02,7357.89L2236.39,7357.89C2049.14,7355.4 1897.11,7188.77 1897.11,6984.1C1897.11,6779.43 2049.14,6612.8 2236.39,6610.31L2280.02,6610.31ZM2280,6615C2465.14,6617.48 2615.75,6781.74 2615.75,6984.1C2615.75,7186.46 2465.14,7350.72 2280,7353.2C2280,7353.2 2236.4,7353.2 2236.4,7353.2C2051.27,7350.72 1900.66,7186.46 1900.66,6984.1C1900.66,6781.74 2051.27,6617.48 2236.4,6615L2280,6615Z" style="fill:rgb(109,159,194);"/>
                </g>
                <g transform="matrix(0.563658,0,0,0.563658,-501.145,758.505)">
                    <g transform="matrix(8.66923e-17,-1.40251,-1.07592,-6.52633e-17,9750.76,7676.58)">
                        <path d="M2236.39,6610.31C2045.32,6610.31 1890.19,6777.8 1890.19,6984.1C1890.19,7190.4 2045.32,7357.89 2236.39,7357.89C2049.14,7355.4 1897.11,7188.77 1897.11,6984.1C1897.11,6779.43 2049.14,6612.8 2236.39,6610.31Z" style="fill:rgb(109,159,194);"/>
                    </g>
                    <g transform="matrix(8.66923e-17,1.40251,-1.07592,6.52633e-17,9750.76,1353.81)">
                        <path d="M2236.39,6610.31C2045.32,6610.31 1890.19,6777.8 1890.19,6984.1C1890.19,7190.4 2045.32,7357.89 2236.39,7357.89C2049.14,7355.4 1897.11,7188.77 1897.11,6984.1C1897.11,6779.43 2049.14,6612.8 2236.39,6610.31Z" style="fill:rgb(109,159,194);"/>
                    </g>
                </g>
            </g>
        </g>
    </g>
</svg>
