<?xml version="1.0" encoding="UTF-8" standalone="no"?>
<!DOCTYPE svg PUBLIC "-//W3C//DTD SVG 1.1//EN" "http://www.w3.org/Graphics/SVG/1.1/DTD/svg11.dtd">
<svg width="100%" height="100%" viewBox="0 0 1920 1920" version="1.1" xmlns="http://www.w3.org/2000/svg" xmlns:xlink="http://www.w3.org/1999/xlink" xml:space="preserve" xmlns:serif="http://www.serif.com/" style="fill-rule:evenodd;clip-rule:evenodd;stroke-linecap:round;stroke-linejoin:round;stroke-miterlimit:1.5;">
    <g transform="matrix(1,0,0,1,0,-2320)">
        <g id="submark" transform="matrix(1.86326,0,0,1.45653,2022.02,2398.89)">
            <rect x="-1085.2" y="-54.163" width="1030.45" height="1318.2" style="fill:none;"/>
            <g id="logo" transform="matrix(2.0361,0,0,2.62932,-2116.25,-8044.32)">
                <g transform="matrix(0.654793,-3.08149e-32,-2.46519e-32,0.600763,-704.937,-906.254)">
                    <ellipse cx="2236.39" cy="6984.1" rx="346.196" ry="373.792" style="fill:white;"/>
                    <path d="M2236.39,6610.31C2045.32,6610.31 1890.19,6777.8 1890.19,6984.1C1890.19,7190.4 2045.32,7357.89 2236.39,7357.89C2427.46,7357.89 2582.58,7190.4 2582.58,6984.1C2582.58,6777.8 2427.46,6610.31 2236.39,6610.31ZM2236.39,6614.47C2425.33,6614.47 2578.73,6780.1 2578.73,6984.1C2578.73,7188.11 2425.33,7353.73 2236.39,7353.73C2047.44,7353.73 1894.05,7188.11 1894.05,6984.1C1894.05,6780.1 2047.44,6614.47 2236.39,6614.47Z" style="fill:rgb(101,158,188);"/>
                </g>
                <g id="human" transform="matrix(2.03738,0,0,1.46918,546.691,3024.87)">
                    <g id="torso_bottom" transform="matrix(-0.244049,0,0,0.33455,277.454,-229.812)">
                        <g transform="matrix(-1,0,0,1.10182,1419.28,-110.58)">
                            <path d="M601.9,1403.16C695.019,1440.12 709.64,1571.95 709.64,1571.95" style="fill:none;stroke:rgb(191,146,104);stroke-width:5.22px;"/>
                        </g>
                        <g transform="matrix(1,0,0,1.10182,-6.82121e-13,-110.58)">
                            <path d="M601.9,1403.16C695.019,1440.12 709.64,1571.95 709.64,1571.95" style="fill:none;stroke:rgb(191,146,104);stroke-width:5.22px;"/>
                        </g>
                        <g transform="matrix(-0.997828,0,0,1.10182,1417.19,-110.58)">
                            <path d="M558.91,1414.76C596.015,1478.63 637.381,1538.31 709.089,1571.95" style="fill:none;stroke:rgb(117,187,89);stroke-width:5.22px;"/>
                        </g>
                        <g transform="matrix(0.997828,0,0,1.10182,2.08976,-110.58)">
                            <path d="M558.91,1414.76C596.015,1478.63 637.381,1538.31 709.089,1571.95" style="fill:none;stroke:rgb(117,187,89);stroke-width:5.22px;"/>
                        </g>
                    </g>
                    <g id="torso_inner-01" transform="matrix(-0.244049,0,0,0.33455,277.454,-229.812)">
                        <g transform="matrix(2.62077,0,0,2.62633,-5195.56,-943.569)">
                            <path d="M2305.32,885.044C2317.16,836.789 2292.85,811.461 2252.99,784.641" style="fill:none;stroke:rgb(191,146,104);stroke-width:2.09px;"/>
                        </g>
                        <g transform="matrix(-1.52377,0,0,1.527,1242.34,613.988)">
                            <path d="M333.541,320.318C333.541,320.318 220.026,379.393 260.648,502.033" style="fill:none;stroke:rgb(191,146,104);stroke-width:3.6px;"/>
                        </g>
                        <g transform="matrix(-0.997828,0,0,1.10182,1417.19,-110.58)">
                            <path d="M505.415,1298.45C511.258,1319.29 519.05,1339.68 527.441,1357.48" style="fill:none;stroke:rgb(117,187,89);stroke-width:5.22px;"/>
                        </g>
                    </g>
                    <g id="torso_inner-02" transform="matrix(-0.244049,0,0,0.33455,277.454,-229.812)">
                        <g transform="matrix(-2.62077,0,0,2.62633,6613.61,-943.569)">
                            <path d="M2305.32,885.044C2317.16,836.789 2292.85,811.461 2252.99,784.641" style="fill:none;stroke:rgb(191,146,104);stroke-width:2.09px;"/>
                        </g>
                        <g transform="matrix(1.52377,0,0,1.527,175.74,613.988)">
                            <path d="M333.541,320.318C333.541,320.318 220.026,379.393 260.648,502.033" style="fill:none;stroke:rgb(191,146,104);stroke-width:3.6px;"/>
                        </g>
                        <g transform="matrix(2.62077,0,0,2.62633,-5195.56,-943.569)">
                            <path d="M2175.21,861.907C2177.44,870.649 2180.4,879.2 2183.6,886.669" style="fill:none;stroke:rgb(117,187,89);stroke-width:2.09px;"/>
                        </g>
                    </g>
                    <g id="arm-01" transform="matrix(0.25023,0,0,0.400666,-73.2541,-258.845)">
                        <g transform="matrix(2.55603,0,0,2.19294,-5047.51,-717.377)">
                            <path d="M2252.54,855.312C2252.54,855.312 2235.33,912.219 2185.08,912.338C2160.33,912.397 2137.4,895.71 2137.72,867.507C2138.18,826.295 2173.97,799.218 2193.46,787.511" style="fill:none;stroke:rgb(109,159,194);stroke-width:2.09px;"/>
                        </g>
                        <g transform="matrix(2.64416,0,0,2.19294,-5248.56,-678.305)">
                            <path d="M2253.47,837.495C2236.95,854.235 2179.47,894.028 2162.65,849.69C2147.28,809.169 2178.03,781.763 2196.24,769.694" style="fill:none;stroke:rgb(109,159,194);stroke-width:2.06px;"/>
                        </g>
                        <g transform="matrix(2.55603,0,0,2.19294,-5035.46,-707.507)">
                            <path d="M2207.25,902.124C2222.83,907.594 2247.96,895.806 2247.82,850.811" style="fill:none;stroke:rgb(109,159,194);stroke-width:2.09px;"/>
                        </g>
                    </g>
                    <g id="arm-02" transform="matrix(-0.25023,0,0,0.400666,282.091,-258.845)">
                        <g transform="matrix(2.55603,0,0,2.19294,-5047.51,-717.377)">
                            <path d="M2252.54,855.312C2252.54,855.312 2235.33,912.219 2185.08,912.338C2160.33,912.397 2137.4,895.71 2137.72,867.507C2138.18,826.295 2173.97,799.218 2193.46,787.511" style="fill:none;stroke:rgb(109,159,194);stroke-width:2.09px;"/>
                        </g>
                        <g transform="matrix(2.55603,0,0,2.19294,-5035.46,-707.507)">
                            <path d="M2207.25,902.124C2222.83,907.594 2247.96,895.806 2247.82,850.811" style="fill:none;stroke:rgb(109,159,194);stroke-width:2.09px;"/>
                        </g>
                        <g transform="matrix(2.64416,0,0,2.19294,-5248.56,-678.305)">
                            <path d="M2253.47,837.495C2236.95,854.235 2179.47,894.028 2162.65,849.69C2147.28,809.169 2178.03,781.763 2196.24,769.694" style="fill:none;stroke:rgb(109,159,194);stroke-width:2.06px;"/>
                        </g>
                    </g>
                    <g id="head" transform="matrix(1,0,0,1,-1.13687e-13,11.8387)">
                        <g transform="matrix(-0.65315,0,0,1.06916,1576.06,-708.137)">
                            <path d="M2253.15,776.322C2253.15,776.322 2258.47,773.083 2264.83,767.79C2279.03,755.955 2299.53,733.26 2283.51,710.32C2273.34,695.775 2253.38,695.822 2253.38,695.822" style="fill:none;stroke:rgb(109,159,194);stroke-width:1.86px;"/>
                        </g>
                        <g transform="matrix(0.65315,0,0,1.06916,-1367.23,-708.137)">
                            <path d="M2253.15,776.322C2253.15,776.322 2258.47,773.083 2264.83,767.79C2279.03,755.955 2299.53,733.26 2283.51,710.32C2273.34,695.775 2253.38,695.822 2253.38,695.822" style="fill:none;stroke:rgb(109,159,194);stroke-width:1.86px;"/>
                        </g>
                        <g transform="matrix(-0.639596,0,0,0.878638,1544.98,-558.113)">
                            <path d="M2252.3,762.285C2270.05,752.622 2282.01,737.862 2288.34,723.911" style="fill:none;stroke:rgb(109,159,194);stroke-width:2.09px;"/>
                        </g>
                        <g transform="matrix(0.639596,0,0,0.878638,-1336.14,-558.113)">
                            <path d="M2252.3,762.285C2270.05,752.622 2282.01,737.862 2288.34,723.911" style="fill:none;stroke:rgb(109,159,194);stroke-width:2.09px;"/>
                        </g>
                        <g transform="matrix(0.371873,0,0,0.510857,-25.7371,35.0312)">
                            <path d="M349.973,170C349.973,170 343.394,173.788 333.53,180.787" style="fill:none;stroke:rgb(109,159,194);stroke-width:3.6px;"/>
                        </g>
                        <g transform="matrix(-0.371873,0,0,0.510857,234.553,35.0312)">
                            <path d="M349.973,170C349.973,170 343.385,173.793 333.508,180.802" style="fill:none;stroke:rgb(109,159,194);stroke-width:3.6px;"/>
                        </g>
                        <g transform="matrix(0.639596,0,0,0.878638,-1336.29,-558.113)">
                            <path d="M2212.97,777.971C2229.19,771.429 2252.54,762.285 2252.54,762.285" style="fill:none;stroke:rgb(109,159,194);stroke-width:2.09px;"/>
                        </g>
                        <g transform="matrix(-0.639596,0,0,0.878638,1545.13,-558.113)">
                            <path d="M2212.97,777.971C2229.19,771.429 2252.54,762.285 2252.54,762.285" style="fill:none;stroke:rgb(109,159,194);stroke-width:2.09px;"/>
                        </g>
                    </g>
                    <g id="torso_top" transform="matrix(-0.244049,0,0,0.33455,277.454,-229.812)">
                        <g transform="matrix(-1,0,0,1.10182,1419.28,-110.58)">
                            <path d="M710.258,1170.39C710.258,1170.39 618.035,1082.77 546.82,1124.13" style="fill:none;stroke:rgb(117,187,89);stroke-width:5.22px;"/>
                        </g>
                        <g transform="matrix(1,0,0,1.10182,-1.23519,-110.58)">
                            <path d="M710.258,1170.39C710.258,1170.39 618.035,1082.77 546.82,1124.13" style="fill:none;stroke:rgb(117,187,89);stroke-width:5.22px;"/>
                        </g>
                        <g transform="matrix(2.62077,0,0,2.62633,-5195.56,-943.569)">
                            <path d="M2252.99,784.641C2252.99,784.641 2234.98,771.144 2216.03,776.319C2199.14,780.931 2181.32,791.025 2174.32,812.708C2172.34,818.835 2171.23,825.887 2171.25,834.003C2171.27,842.772 2172.8,852.451 2175.21,861.907" style="fill:none;stroke:rgb(117,187,89);stroke-width:2.09px;"/>
                        </g>
                        <g transform="matrix(-0.997828,0,0,1.10182,1417.19,-110.58)">
                            <path d="M709.71,1114.28C709.71,1114.28 662.394,1082.11 612.619,1094.44C568.256,1105.44 521.445,1129.5 503.072,1181.18C497.88,1195.79 494.959,1212.6 495.005,1231.94C495.054,1252.84 499.094,1275.91 505.415,1298.45" style="fill:none;stroke:rgb(117,187,89);stroke-width:5.22px;"/>
                        </g>
                    </g>
                </g>
                <g transform="matrix(0.654793,-3.08149e-32,-2.46519e-32,0.600763,-704.937,-906.254)">
                    <path d="M2236.39,6610.31C2045.32,6610.31 1890.19,6777.8 1890.19,6984.1C1890.19,7190.4 2045.32,7357.89 2236.39,7357.89C2427.46,7357.89 2582.58,7190.4 2582.58,6984.1C2582.58,6777.8 2427.46,6610.31 2236.39,6610.31ZM2236.39,6614.47C2425.33,6614.47 2578.73,6780.1 2578.73,6984.1C2578.73,7188.11 2425.33,7353.73 2236.39,7353.73C2047.44,7353.73 1894.05,7188.11 1894.05,6984.1C1894.05,6780.1 2047.44,6614.47 2236.39,6614.47Z" style="fill:rgb(109,159,194);"/>
                </g>
                <g transform="matrix(0.563658,0,0,0.462492,-501.145,1212.78)">
                    <g transform="matrix(8.66923e-17,-1.40251,-1.07592,-6.52633e-17,9750.76,7626.93)">
                        <path d="M2236.39,6610.31C2045.32,6610.31 1890.19,6777.8 1890.19,6984.1C1890.19,7190.4 2045.32,7357.89 2236.39,7357.89C2049.14,7355.4 1897.11,7188.77 1897.11,6984.1C1897.11,6779.43 2049.14,6612.8 2236.39,6610.31Z" style="fill:rgb(101,158,188);"/>
                        <path d="M2236.39,6610.31C2045.32,6610.31 1890.19,6777.8 1890.19,6984.1C1890.19,7190.4 2045.32,7357.89 2236.39,7357.89C2049.14,7355.4 1897.11,7188.77 1897.11,6984.1C1897.11,6779.43 2049.14,6612.8 2236.39,6610.31Z" style="fill:rgb(101,158,188);"/>
                    </g>
                    <g transform="matrix(8.66923e-17,1.40251,-1.07592,6.52633e-17,9750.76,1353.81)">
                        <path d="M2236.39,6610.31C2045.32,6610.31 1890.19,6777.8 1890.19,6984.1C1890.19,7190.4 2045.32,7357.89 2236.39,7357.89C2049.14,7355.4 1897.11,7188.77 1897.11,6984.1C1897.11,6779.43 2049.14,6612.8 2236.39,6610.31Z" style="fill:rgb(101,158,188);"/>
                        <path d="M2236.39,6610.31C2045.32,6610.31 1890.19,6777.8 1890.19,6984.1C1890.19,7190.4 2045.32,7357.89 2236.39,7357.89C2049.14,7355.4 1897.11,7188.77 1897.11,6984.1C1897.11,6779.43 2049.14,6612.8 2236.39,6610.31Z" style="fill:rgb(101,158,188);"/>
                    </g>
                </g>
            </g>
        </g>
    </g>
</svg>
