<?xml version="1.0" encoding="UTF-8" standalone="no"?>
<!DOCTYPE svg PUBLIC "-//W3C//DTD SVG 1.1//EN" "http://www.w3.org/Graphics/SVG/1.1/DTD/svg11.dtd">
<svg width="100%" height="100%" viewBox="0 0 1920 1920" version="1.1" xmlns="http://www.w3.org/2000/svg" xmlns:xlink="http://www.w3.org/1999/xlink" xml:space="preserve" xmlns:serif="http://www.serif.com/" style="fill-rule:evenodd;clip-rule:evenodd;stroke-linejoin:round;stroke-miterlimit:2;">
    <g transform="matrix(1,0,0,1,-2120,-2120)">
        <g id="submark-black" transform="matrix(1.92,0,0,1.92,2120,2120)">
            <rect x="0" y="0" width="1000" height="1000" style="fill:none;"/>
            <g transform="matrix(1.03983,0,0,1.03984,-1079.66,-19.9203)">
                <circle cx="1519.16" cy="500" r="480.843"/>
                <path d="M1519.16,19.157C1784.54,19.157 2000,234.616 2000,500C2000,765.384 1784.54,980.843 1519.16,980.843C1253.77,980.843 1038.31,765.384 1038.31,500C1038.31,234.616 1253.77,19.157 1519.16,19.157ZM1519.16,54.775C1764.88,54.775 1964.38,254.274 1964.38,500C1964.38,745.726 1764.88,945.225 1519.16,945.225C1273.43,945.225 1073.93,745.726 1073.93,500C1073.93,254.274 1273.43,54.775 1519.16,54.775Z" style="fill:white;"/>
            </g>
            <g transform="matrix(1.03983,0,0,1.03984,-1079.66,-19.9203)">
                <path d="M1519.16,19.157C1784.54,19.157 2000,234.616 2000,500C2000,765.384 1784.54,980.843 1519.16,980.843C1253.77,980.843 1038.31,765.384 1038.31,500C1038.31,234.616 1253.77,19.157 1519.16,19.157ZM1519.16,54.775C1764.88,54.775 1964.38,254.274 1964.38,500C1964.38,745.726 1764.88,945.225 1519.16,945.225C1273.43,945.225 1073.93,745.726 1073.93,500C1073.93,254.274 1273.43,54.775 1519.16,54.775Z" style="fill:white;"/>
            </g>
            <g id="frame" transform="matrix(1.73611,0,0,1.73528,66.5191,83.8451)">
                <g transform="matrix(1.04607,-4.0252e-18,-2.90813e-18,0.235017,11.5709,91.2457)">
                    <rect x="159.099" y="173.41" width="240.901" height="76.59" style="fill:white;"/>
                </g>
                <g transform="matrix(1.04607,-4.0252e-18,-2.90813e-18,0.235017,-96.4291,289.246)">
                    <rect x="159.099" y="173.41" width="240.901" height="76.59" style="fill:white;"/>
                </g>
                <g transform="matrix(0.595087,0,0,1.01323,156.796,-13.3068)">
                    <rect x="428.851" y="143.41" width="30.248" height="213.18" style="fill:white;"/>
                </g>
                <g transform="matrix(0.595087,0,0,1.01323,-185.204,-13.3068)">
                    <rect x="428.851" y="143.41" width="30.248" height="213.18" style="fill:white;"/>
                </g>
            </g>
            <g id="dials" transform="matrix(0.781248,0,0,0.780877,109.922,109.874)">
                <g transform="matrix(2.32475,0,0,1.91116,-172.419,-2.74681)">
                    <path d="M444.099,127.015C444.099,121.24 440.246,116.551 435.5,116.551L396.778,116.551C392.032,116.551 388.179,121.24 388.179,127.015L388.179,147.945C388.179,153.721 392.032,158.41 396.778,158.41L435.5,158.41C440.246,158.41 444.099,153.721 444.099,147.945L444.099,127.015Z" style="fill:white;"/>
                </g>
                <g transform="matrix(2.2,0,0,2,-137.018,-16.8198)">
                    <path d="M394.099,133.41C394.099,130.65 392.063,128.41 389.556,128.41L348.642,128.41C346.135,128.41 344.099,130.65 344.099,133.41L344.099,143.41C344.099,146.169 346.135,148.41 348.642,148.41L389.556,148.41C392.063,148.41 394.099,146.169 394.099,143.41L394.099,133.41Z" style="fill:white;"/>
                </g>
            </g>
            <g transform="matrix(2.05893,0,0,2.01373,-94.126,163.879)">
                <g transform="matrix(116.667,0,0,116.667,174.466,198.686)">
                    <path d="M0.459,-0.736L0.593,-0.736L0.593,-0L0.459,-0L0.459,-0.056C0.433,-0.031 0.407,-0.014 0.381,-0.003C0.355,0.008 0.327,0.014 0.296,0.014C0.227,0.014 0.168,-0.013 0.118,-0.066C0.068,-0.119 0.043,-0.186 0.043,-0.265C0.043,-0.347 0.067,-0.414 0.116,-0.466C0.164,-0.519 0.223,-0.545 0.292,-0.545C0.324,-0.545 0.354,-0.539 0.382,-0.527C0.41,-0.515 0.436,-0.497 0.459,-0.473L0.459,-0.736ZM0.319,-0.422C0.278,-0.422 0.244,-0.407 0.217,-0.378C0.189,-0.349 0.176,-0.312 0.176,-0.266C0.176,-0.22 0.19,-0.182 0.217,-0.153C0.245,-0.123 0.279,-0.108 0.32,-0.108C0.362,-0.108 0.396,-0.123 0.424,-0.152C0.452,-0.181 0.465,-0.219 0.465,-0.267C0.465,-0.313 0.452,-0.35 0.424,-0.379C0.396,-0.408 0.362,-0.422 0.319,-0.422Z" style="fill:white;fill-rule:nonzero;"/>
                </g>
                <g transform="matrix(116.667,0,0,116.667,251.485,198.686)">
                    <path d="M0.6,-0.227L0.171,-0.227C0.178,-0.189 0.194,-0.159 0.221,-0.137C0.248,-0.115 0.282,-0.104 0.324,-0.104C0.374,-0.104 0.416,-0.121 0.452,-0.156L0.564,-0.103C0.536,-0.063 0.503,-0.034 0.464,-0.015C0.425,0.004 0.378,0.014 0.325,0.014C0.241,0.014 0.174,-0.013 0.121,-0.065C0.069,-0.118 0.042,-0.184 0.042,-0.263C0.042,-0.344 0.069,-0.411 0.121,-0.465C0.173,-0.518 0.239,-0.545 0.317,-0.545C0.401,-0.545 0.469,-0.518 0.521,-0.465C0.574,-0.411 0.6,-0.34 0.6,-0.252L0.6,-0.227ZM0.466,-0.332C0.458,-0.362 0.44,-0.386 0.414,-0.404C0.388,-0.423 0.358,-0.432 0.324,-0.432C0.287,-0.432 0.254,-0.422 0.226,-0.401C0.209,-0.388 0.192,-0.365 0.177,-0.332L0.466,-0.332Z" style="fill:white;fill-rule:nonzero;"/>
                </g>
                <g transform="matrix(116.667,0,0,116.667,326.167,198.686)">
                    <path d="M0.2,-0.531L0.2,-0.473C0.224,-0.497 0.25,-0.515 0.278,-0.527C0.306,-0.539 0.336,-0.545 0.368,-0.545C0.437,-0.545 0.496,-0.519 0.544,-0.466C0.593,-0.414 0.617,-0.347 0.617,-0.265C0.617,-0.186 0.592,-0.119 0.542,-0.066C0.492,-0.013 0.432,0.014 0.364,0.014C0.333,0.014 0.305,0.008 0.278,-0.003C0.252,-0.014 0.226,-0.031 0.2,-0.056L0.2,0.194L0.067,0.194L0.067,-0.531L0.2,-0.531ZM0.34,-0.422C0.298,-0.422 0.263,-0.408 0.235,-0.379C0.208,-0.35 0.194,-0.313 0.194,-0.267C0.194,-0.219 0.208,-0.181 0.235,-0.152C0.263,-0.123 0.298,-0.108 0.34,-0.108C0.381,-0.108 0.415,-0.123 0.443,-0.153C0.47,-0.182 0.484,-0.22 0.484,-0.266C0.484,-0.312 0.471,-0.349 0.443,-0.378C0.416,-0.407 0.382,-0.422 0.34,-0.422Z" style="fill:white;fill-rule:nonzero;"/>
                </g>
            </g>
        </g>
    </g>
</svg>
